<?xml version="1.0" standalone="no"?>
<!DOCTYPE svg PUBLIC "-//W3C//DTD SVG 20010904//EN"
 "http://www.w3.org/TR/2001/REC-SVG-20010904/DTD/svg10.dtd">
<svg version="1.0" xmlns="http://www.w3.org/2000/svg"
 width="2834.000000pt" height="2834.000000pt" viewBox="0 0 2834.000000 2834.000000"
 preserveAspectRatio="xMidYMid meet">

<g transform="translate(0.000000,2834.000000) scale(0.100000,-0.100000)"
fill="#fffffc" stroke="none">
<path d="M14022 28319 c-86 -15 -201 -57 -282 -102 -101 -57 -240 -196 -297
-297 -238 -426 -81 -944 354 -1163 28 -15 91 -39 140 -53 77 -24 106 -27 228
-28 163 0 221 12 360 78 216 102 380 298 447 533 18 63 22 103 22 213 0 157
-19 240 -83 368 -48 93 -73 128 -154 211 -154 158 -341 239 -567 246 -63 2
-139 0 -168 -6z"/>
<path d="M11045 27983 c-66 -9 -532 -128 -778 -199 -1182 -339 -2323 -834
-3372 -1462 -250 -150 -325 -207 -403 -305 -66 -83 -114 -174 -147 -277 -36
-112 -45 -296 -21 -413 65 -314 284 -551 593 -639 104 -30 324 -32 423 -4 94
27 227 92 423 210 1070 640 2200 1108 3424 1416 296 75 369 103 486 191 137
103 258 287 304 464 28 109 25 316 -6 415 -98 316 -338 533 -659 596 -68 13
-196 16 -267 7z"/>
<path d="M17025 27951 c-158 -43 -266 -102 -373 -205 -111 -106 -177 -212
-228 -366 -25 -77 -28 -99 -28 -230 0 -172 12 -228 84 -375 56 -115 130 -210
221 -281 131 -104 193 -129 507 -208 1215 -304 2377 -784 3397 -1404 262 -159
258 -157 365 -193 81 -27 114 -33 220 -37 144 -5 236 10 356 58 259 103 452
340 503 615 15 82 13 237 -4 319 -41 195 -151 371 -301 484 -72 54 -480 301
-694 420 -1074 597 -2178 1032 -3420 1349 -243 62 -262 65 -395 69 -115 3
-152 1 -210 -15z"/>
<path d="M23457 24420 c-187 -34 -340 -114 -463 -242 -146 -150 -220 -325
-231 -543 -11 -229 65 -437 219 -601 175 -185 368 -269 618 -268 136 1 217 19
339 75 236 110 416 336 472 594 7 33 13 107 13 165 0 225 -77 413 -232 573
-160 164 -343 245 -572 252 -63 2 -137 0 -163 -5z"/>
<path d="M4607 24410 c-329 -60 -567 -271 -664 -587 -23 -78 -26 -104 -26
-233 0 -129 3 -155 26 -233 45 -147 99 -240 201 -345 103 -107 211 -172 363
-219 78 -23 104 -26 233 -26 129 0 155 3 233 26 152 47 260 112 363 219 102
105 156 198 201 345 23 78 26 104 26 233 0 129 -3 155 -26 233 -45 147 -99
240 -201 345 -152 158 -340 240 -566 247 -63 2 -137 0 -163 -5z"/>
<path d="M18510 22079 c-354 -38 -698 -140 -1020 -300 -340 -170 -644 -400
-891 -675 -54 -60 -585 -747 -1179 -1525 -594 -778 -1084 -1415 -1089 -1417
-5 -2 -672 689 -1483 1535 -811 846 -1510 1570 -1554 1609 -451 404 -978 653
-1569 741 -170 25 -600 25 -770 0 -575 -86 -1084 -314 -1525 -685 -140 -117
-372 -360 -480 -502 -354 -466 -574 -1001 -661 -1610 -38 -273 -40 -454 -37
-3670 4 -2875 5 -3116 21 -3248 84 -689 309 -1254 703 -1762 106 -137 371
-406 504 -511 430 -342 924 -560 1446 -639 181 -28 485 -37 664 -20 612 55
1173 295 1645 701 139 120 334 323 436 454 75 98 3607 4718 3769 4931 1420
1868 2995 3923 3044 3970 180 174 439 187 699 33 93 -55 231 -193 285 -284 52
-89 98 -226 111 -335 8 -58 11 -1844 11 -5790 0 -6308 -5 -5781 62 -5985 235
-708 1044 -1055 1715 -735 141 67 241 138 353 250 181 180 292 391 347 655 16
74 17 504 21 5745 2 3858 0 5734 -8 5880 -5 118 -19 278 -30 355 -163 1112
-845 2045 -1850 2529 -309 148 -581 232 -935 288 -149 23 -605 34 -755 17z
m-9007 -2547 c42 -21 94 -59 141 -105 99 -95 3146 -3278 3146 -3286 0 -3 -698
-919 -1550 -2036 -1001 -1311 -1573 -2051 -1614 -2090 -91 -87 -160 -119 -263
-124 -95 -4 -157 13 -244 65 -199 119 -326 343 -359 630 -8 72 -10 961 -8
3209 4 3414 -1 3146 62 3325 69 199 228 371 400 432 37 13 74 18 136 16 73 -3
95 -8 153 -36z"/>
<path d="M2682 22035 c-195 -44 -369 -153 -480 -301 -54 -72 -301 -480 -420
-694 -597 -1074 -1033 -2180 -1349 -3420 -59 -232 -65 -267 -70 -385 -4 -110
-2 -144 16 -220 91 -382 420 -635 823 -635 329 0 625 196 751 496 14 32 52
168 86 301 229 918 536 1750 952 2583 172 343 277 535 472 859 177 293 208
374 215 557 10 263 -78 479 -267 656 -98 92 -165 132 -294 176 -94 32 -113 36
-237 38 -92 3 -155 -1 -198 -11z"/>
<path d="M25322 22005 c-166 -38 -307 -120 -424 -244 -106 -113 -162 -215
-205 -372 -25 -89 -24 -308 1 -399 24 -88 70 -185 148 -310 36 -58 110 -184
165 -280 594 -1040 1010 -2076 1303 -3246 75 -297 103 -369 191 -487 73 -97
176 -180 294 -237 146 -70 212 -85 380 -84 125 1 149 4 225 29 157 51 262 117
372 233 83 88 138 180 180 302 32 92 33 100 33 250 l0 155 -63 248 c-359 1424
-908 2742 -1646 3952 -34 55 -67 112 -75 127 -46 90 -180 215 -301 281 -121
65 -217 89 -375 93 -96 2 -159 -1 -203 -11z"/>
<path d="M27368 15000 c-266 -48 -489 -215 -611 -457 -15 -28 -39 -91 -53
-140 -24 -77 -27 -106 -28 -228 0 -163 12 -221 78 -360 102 -216 298 -380 533
-447 63 -18 103 -22 213 -22 157 0 240 19 368 83 93 48 128 73 211 154 107
105 172 213 217 364 24 77 27 106 28 228 0 117 -3 153 -22 220 -82 289 -297
505 -582 585 -84 24 -274 35 -352 20z"/>
<path d="M708 14990 c-266 -48 -489 -215 -611 -457 -15 -28 -39 -91 -53 -140
-24 -77 -27 -106 -28 -228 0 -163 12 -221 78 -360 102 -216 298 -380 533 -447
63 -18 103 -22 213 -22 157 0 240 19 368 83 93 48 128 73 211 154 107 105 172
213 217 364 24 77 27 106 28 228 0 163 -12 221 -78 360 -101 214 -298 380
-528 445 -82 24 -272 35 -350 20z"/>
<path d="M1050 11973 c-78 -13 -185 -50 -264 -91 -74 -37 -109 -65 -187 -142
-105 -103 -154 -181 -200 -310 -71 -199 -66 -331 24 -690 237 -940 544 -1790
964 -2674 185 -389 449 -878 677 -1251 34 -55 68 -113 76 -129 26 -51 159
-184 234 -234 179 -120 414 -169 621 -131 332 61 592 319 661 656 26 125 16
302 -25 423 -18 53 -42 112 -54 132 -12 20 -72 119 -133 220 -630 1036 -1120
2226 -1419 3443 -31 126 -68 256 -82 289 -99 235 -312 416 -563 476 -80 19
-254 26 -330 13z"/>
<path d="M26990 11936 c-178 -38 -302 -106 -430 -235 -141 -142 -173 -209
-256 -536 -316 -1253 -788 -2393 -1437 -3470 -190 -315 -211 -375 -211 -590 0
-166 19 -248 89 -384 101 -195 259 -330 472 -401 84 -28 116 -34 223 -38 193
-7 347 34 500 132 141 91 211 181 417 531 705 1200 1210 2427 1549 3765 53
209 66 275 71 365 13 243 -70 459 -242 631 -97 98 -203 163 -335 205 -81 26
-114 32 -220 35 -82 2 -147 -1 -190 -10z"/>
<path d="M23468 5570 c-359 -61 -621 -323 -684 -682 -30 -174 -6 -334 76 -503
83 -170 215 -302 385 -385 136 -66 212 -84 360 -84 148 0 224 18 360 84 170
83 302 215 385 385 65 134 83 212 84 355 1 250 -83 443 -268 618 -71 67 -108
92 -191 133 -158 77 -344 106 -507 79z"/>
<path d="M4608 5560 c-181 -31 -341 -114 -464 -242 -102 -105 -156 -198 -201
-345 -23 -78 -26 -104 -26 -233 0 -129 3 -155 26 -233 46 -149 99 -240 206
-350 154 -160 338 -242 566 -254 229 -11 437 65 601 219 182 172 268 367 268
608 0 243 -86 435 -273 613 -76 72 -110 96 -196 138 -158 77 -344 106 -507 79z"/>
<path d="M6942 3665 c-261 -59 -458 -216 -577 -460 -56 -115 -74 -185 -82
-315 -13 -232 69 -450 232 -616 179 -183 1194 -741 1943 -1068 740 -323 1423
-557 2262 -774 l255 -66 155 0 c136 -1 164 2 230 22 458 144 706 618 554 1064
-77 229 -248 411 -472 506 -29 13 -167 52 -306 87 -933 236 -1738 532 -2566
946 -343 172 -535 277 -859 472 -303 182 -374 209 -571 213 -92 3 -155 -1
-198 -11z"/>
<path d="M21062 3660 c-129 -24 -228 -71 -542 -257 -1026 -609 -2181 -1081
-3346 -1369 -125 -31 -256 -66 -291 -79 -207 -75 -398 -265 -477 -476 -82
-220 -72 -466 30 -673 81 -166 211 -295 379 -376 144 -69 212 -85 375 -84 129
0 143 2 340 53 937 240 1736 521 2560 898 579 266 1388 707 1604 876 213 166
326 395 326 662 0 117 -16 199 -59 310 -93 240 -306 431 -556 499 -72 20 -269
29 -343 16z"/>
<path d="M14048 1660 c-266 -48 -489 -215 -611 -457 -15 -28 -39 -91 -53 -140
-24 -77 -27 -106 -28 -228 0 -117 3 -153 22 -220 83 -291 296 -504 587 -587
65 -18 105 -22 215 -22 157 0 240 19 368 83 93 48 128 73 211 154 107 105 172
213 217 364 24 77 27 106 28 228 0 117 -3 153 -22 220 -82 289 -297 505 -582
585 -84 24 -274 35 -352 20z"/>
</g>
</svg>
